<mxfile host="Electron" modified="2023-09-23T08:28:27.628Z" agent="Mozilla/5.0 (Windows NT 10.0; Win64; x64) AppleWebKit/537.36 (KHTML, like Gecko) draw.io/21.7.5 Chrome/114.0.5735.289 Electron/25.8.1 Safari/537.36" etag="l-PjeK2VcHKKQz4ZPkPq" version="21.7.5" type="device">
  <diagram id="9026b367-c43d-59dc-8533-dd78b0df729c" name="第 1 页">
    <mxGraphModel dx="940" dy="702" grid="1" gridSize="10" guides="1" tooltips="1" connect="1" arrows="1" fold="1" page="0" pageScale="1" pageWidth="827" pageHeight="1169" background="#FFFFFF" style="azure" math="0" shadow="0">
      <root>
        <mxCell id="0" />
        <mxCell id="1" parent="0" />
        <mxCell id="yP4HdvnU_koDg8SmlE66-13" value="" style="rounded=1;whiteSpace=wrap;html=1;fontSize=12;" parent="1" vertex="1">
          <mxGeometry x="210" y="55" width="290" height="115" as="geometry" />
        </mxCell>
        <mxCell id="onUvSt0FVVwOG73gFmEF-1" value="数据序列[seq]" style="rounded=0;whiteSpace=wrap;html=1;" parent="1" vertex="1">
          <mxGeometry x="240" y="120" width="120" height="30" as="geometry" />
        </mxCell>
        <mxCell id="onUvSt0FVVwOG73gFmEF-2" value="数据类型标识[cls]" style="rounded=0;whiteSpace=wrap;html=1;fillColor=#ffe9e0;strokeColor=#ffb076;" parent="1" vertex="1">
          <mxGeometry x="360" y="120" width="120" height="30" as="geometry" />
        </mxCell>
        <mxCell id="onUvSt0FVVwOG73gFmEF-3" value="" style="endArrow=classic;html=1;rounded=0;fillColor=#ffecf1;strokeColor=#ff8987;" parent="1" edge="1">
          <mxGeometry width="50" height="50" relative="1" as="geometry">
            <mxPoint x="360" y="150" as="sourcePoint" />
            <mxPoint x="360" y="230" as="targetPoint" />
          </mxGeometry>
        </mxCell>
        <mxCell id="onUvSt0FVVwOG73gFmEF-4" value="&lt;font style=&quot;font-size: 16px&quot;&gt;浅层网&lt;/font&gt;" style="rounded=1;whiteSpace=wrap;html=1;" parent="1" vertex="1">
          <mxGeometry x="300" y="230" width="120" height="60" as="geometry" />
        </mxCell>
        <mxCell id="onUvSt0FVVwOG73gFmEF-5" value="" style="endArrow=classic;html=1;rounded=0;fillColor=#ffecf1;strokeColor=#ff8987;" parent="1" edge="1">
          <mxGeometry width="50" height="50" relative="1" as="geometry">
            <mxPoint x="360" y="290" as="sourcePoint" />
            <mxPoint x="360" y="370" as="targetPoint" />
          </mxGeometry>
        </mxCell>
        <mxCell id="onUvSt0FVVwOG73gFmEF-21" style="edgeStyle=orthogonalEdgeStyle;rounded=0;orthogonalLoop=1;jettySize=auto;html=1;exitX=1;exitY=0.5;exitDx=0;exitDy=0;entryX=0.5;entryY=0;entryDx=0;entryDy=0;fontSize=14;" parent="1" source="onUvSt0FVVwOG73gFmEF-6" target="onUvSt0FVVwOG73gFmEF-17" edge="1">
          <mxGeometry relative="1" as="geometry" />
        </mxCell>
        <mxCell id="onUvSt0FVVwOG73gFmEF-6" value="&lt;font style=&quot;font-size: 16px&quot;&gt;对应网&lt;/font&gt;" style="rounded=1;whiteSpace=wrap;html=1;" parent="1" vertex="1">
          <mxGeometry x="300" y="370" width="120" height="60" as="geometry" />
        </mxCell>
        <mxCell id="onUvSt0FVVwOG73gFmEF-7" value="图像数据[C,H,W,D]" style="rounded=0;whiteSpace=wrap;html=1;" parent="1" vertex="1">
          <mxGeometry x="240" y="70" width="120" height="30" as="geometry" />
        </mxCell>
        <mxCell id="onUvSt0FVVwOG73gFmEF-9" value="数据类型标识[cls]" style="rounded=0;whiteSpace=wrap;html=1;fillColor=#ffe9e0;strokeColor=#ffb076;" parent="1" vertex="1">
          <mxGeometry x="360" y="70" width="120" height="30" as="geometry" />
        </mxCell>
        <mxCell id="onUvSt0FVVwOG73gFmEF-11" value="+" style="text;html=1;align=center;verticalAlign=middle;resizable=0;points=[];autosize=1;strokeColor=none;fillColor=none;fontSize=14;" parent="1" vertex="1">
          <mxGeometry x="350" y="100" width="20" height="20" as="geometry" />
        </mxCell>
        <mxCell id="onUvSt0FVVwOG73gFmEF-12" value="" style="endArrow=classic;html=1;rounded=0;fillColor=#ffecf1;strokeColor=#ff8987;" parent="1" edge="1">
          <mxGeometry width="50" height="50" relative="1" as="geometry">
            <mxPoint x="330" y="290" as="sourcePoint" />
            <mxPoint x="330" y="370" as="targetPoint" />
          </mxGeometry>
        </mxCell>
        <mxCell id="onUvSt0FVVwOG73gFmEF-13" value="" style="endArrow=classic;html=1;rounded=0;fillColor=#ffecf1;strokeColor=#ff8987;" parent="1" edge="1">
          <mxGeometry width="50" height="50" relative="1" as="geometry">
            <mxPoint x="390" y="290" as="sourcePoint" />
            <mxPoint x="390" y="370" as="targetPoint" />
          </mxGeometry>
        </mxCell>
        <mxCell id="onUvSt0FVVwOG73gFmEF-14" value="&lt;font style=&quot;font-size: 16px&quot;&gt;哺乳脑&lt;/font&gt;" style="ellipse;whiteSpace=wrap;html=1;aspect=fixed;fontSize=14;fillColor=#ffecf1;strokeColor=#ff8987;" parent="1" vertex="1">
          <mxGeometry x="467.5" y="665" width="105" height="105" as="geometry" />
        </mxCell>
        <mxCell id="onUvSt0FVVwOG73gFmEF-28" style="edgeStyle=orthogonalEdgeStyle;rounded=0;orthogonalLoop=1;jettySize=auto;html=1;exitX=1;exitY=0.5;exitDx=0;exitDy=0;entryX=0;entryY=0.5;entryDx=0;entryDy=0;fontSize=12;" parent="1" source="onUvSt0FVVwOG73gFmEF-15" target="onUvSt0FVVwOG73gFmEF-17" edge="1">
          <mxGeometry relative="1" as="geometry">
            <Array as="points">
              <mxPoint x="640" y="640" />
            </Array>
          </mxGeometry>
        </mxCell>
        <mxCell id="onUvSt0FVVwOG73gFmEF-15" value="杏仁核" style="ellipse;whiteSpace=wrap;html=1;aspect=fixed;fontSize=14;fillColor=#f0fff5;strokeColor=#3ce4bb;" parent="1" vertex="1">
          <mxGeometry x="495" y="615" width="50" height="50" as="geometry" />
        </mxCell>
        <mxCell id="onUvSt0FVVwOG73gFmEF-38" style="edgeStyle=orthogonalEdgeStyle;rounded=0;orthogonalLoop=1;jettySize=auto;html=1;entryX=0.5;entryY=0;entryDx=0;entryDy=0;fontSize=12;shape=link;" parent="1" source="onUvSt0FVVwOG73gFmEF-16" target="onUvSt0FVVwOG73gFmEF-15" edge="1">
          <mxGeometry relative="1" as="geometry" />
        </mxCell>
        <mxCell id="onUvSt0FVVwOG73gFmEF-16" value="&lt;font style=&quot;font-size: 16px&quot;&gt;人类脑&lt;/font&gt;" style="ellipse;whiteSpace=wrap;html=1;aspect=fixed;fontSize=14;fillColor=#ffecf1;strokeColor=#ff8987;" parent="1" vertex="1">
          <mxGeometry x="293.75" y="495" width="135" height="135" as="geometry" />
        </mxCell>
        <mxCell id="onUvSt0FVVwOG73gFmEF-29" style="edgeStyle=orthogonalEdgeStyle;rounded=0;orthogonalLoop=1;jettySize=auto;html=1;exitX=0.5;exitY=1;exitDx=0;exitDy=0;fontSize=12;" parent="1" source="onUvSt0FVVwOG73gFmEF-17" edge="1">
          <mxGeometry relative="1" as="geometry">
            <mxPoint x="680" y="840" as="targetPoint" />
          </mxGeometry>
        </mxCell>
        <mxCell id="onUvSt0FVVwOG73gFmEF-17" value="&lt;font style=&quot;font-size: 16px&quot;&gt;爬行脑&lt;/font&gt;" style="ellipse;whiteSpace=wrap;html=1;aspect=fixed;fontSize=14;fillColor=#ffecf1;strokeColor=#ff8987;" parent="1" vertex="1">
          <mxGeometry x="640" y="600" width="80" height="80" as="geometry" />
        </mxCell>
        <mxCell id="onUvSt0FVVwOG73gFmEF-20" value="" style="endArrow=classic;html=1;rounded=0;fillColor=#ffecf1;strokeColor=#ff8987;entryX=0.5;entryY=0;entryDx=0;entryDy=0;exitX=0.5;exitY=1;exitDx=0;exitDy=0;" parent="1" source="onUvSt0FVVwOG73gFmEF-6" edge="1">
          <mxGeometry width="50" height="50" relative="1" as="geometry">
            <mxPoint x="358" y="430" as="sourcePoint" />
            <mxPoint x="359.25" y="495" as="targetPoint" />
            <Array as="points" />
          </mxGeometry>
        </mxCell>
        <mxCell id="onUvSt0FVVwOG73gFmEF-22" value="" style="endArrow=classic;html=1;rounded=0;fillColor=#ffecf1;strokeColor=#ff8987;" parent="1" edge="1">
          <mxGeometry width="50" height="50" relative="1" as="geometry">
            <mxPoint x="40" y="120" as="sourcePoint" />
            <mxPoint x="117.5" y="120" as="targetPoint" />
          </mxGeometry>
        </mxCell>
        <mxCell id="onUvSt0FVVwOG73gFmEF-24" value="数据流" style="edgeLabel;html=1;align=center;verticalAlign=middle;resizable=0;points=[];fontSize=12;childText;" parent="onUvSt0FVVwOG73gFmEF-22" vertex="1" connectable="0">
          <mxGeometry x="0.3781" y="3" relative="1" as="geometry">
            <mxPoint x="-13" y="-7" as="offset" />
          </mxGeometry>
        </mxCell>
        <mxCell id="onUvSt0FVVwOG73gFmEF-23" style="edgeStyle=orthogonalEdgeStyle;rounded=0;orthogonalLoop=1;jettySize=auto;html=1;exitX=1;exitY=0.5;exitDx=0;exitDy=0;fontSize=14;" parent="1" edge="1">
          <mxGeometry relative="1" as="geometry">
            <mxPoint x="40" y="160" as="sourcePoint" />
            <mxPoint x="120" y="160" as="targetPoint" />
            <Array as="points">
              <mxPoint x="70" y="160" />
              <mxPoint x="70" y="160" />
            </Array>
          </mxGeometry>
        </mxCell>
        <mxCell id="onUvSt0FVVwOG73gFmEF-25" value="&lt;font style=&quot;font-size: 12px&quot;&gt;内部信号流&lt;/font&gt;" style="text;html=1;align=center;verticalAlign=middle;resizable=0;points=[];autosize=1;strokeColor=none;fillColor=none;fontSize=14;" parent="1" vertex="1">
          <mxGeometry x="40" y="140" width="80" height="20" as="geometry" />
        </mxCell>
        <mxCell id="onUvSt0FVVwOG73gFmEF-55" style="rounded=0;orthogonalLoop=1;jettySize=auto;html=1;exitX=1;exitY=0.5;exitDx=0;exitDy=0;entryX=0.033;entryY=0.092;entryDx=0;entryDy=0;entryPerimeter=0;fontSize=12;shape=link;" parent="1" source="onUvSt0FVVwOG73gFmEF-27" target="onUvSt0FVVwOG73gFmEF-46" edge="1">
          <mxGeometry relative="1" as="geometry" />
        </mxCell>
        <mxCell id="onUvSt0FVVwOG73gFmEF-27" value="&lt;font style=&quot;font-size: 16px&quot;&gt;额叶区&lt;/font&gt;" style="rounded=1;whiteSpace=wrap;html=1;fontSize=12;" parent="1" vertex="1">
          <mxGeometry x="40" y="400" width="120" height="60" as="geometry" />
        </mxCell>
        <mxCell id="onUvSt0FVVwOG73gFmEF-48" style="edgeStyle=orthogonalEdgeStyle;rounded=0;orthogonalLoop=1;jettySize=auto;html=1;exitX=1;exitY=0.5;exitDx=0;exitDy=0;entryX=0.017;entryY=0.362;entryDx=0;entryDy=0;entryPerimeter=0;fontSize=12;shape=link;" parent="1" source="onUvSt0FVVwOG73gFmEF-30" target="onUvSt0FVVwOG73gFmEF-46" edge="1">
          <mxGeometry relative="1" as="geometry" />
        </mxCell>
        <mxCell id="onUvSt0FVVwOG73gFmEF-30" value="&lt;font style=&quot;font-size: 16px&quot;&gt;顶叶区&lt;/font&gt;" style="rounded=1;whiteSpace=wrap;html=1;fontSize=12;" parent="1" vertex="1">
          <mxGeometry x="40" y="486" width="120" height="60" as="geometry" />
        </mxCell>
        <mxCell id="yP4HdvnU_koDg8SmlE66-1" style="rounded=0;orthogonalLoop=1;jettySize=auto;html=1;fontSize=12;shape=link;" parent="1" source="onUvSt0FVVwOG73gFmEF-31" edge="1">
          <mxGeometry relative="1" as="geometry">
            <mxPoint x="210" y="598" as="targetPoint" />
          </mxGeometry>
        </mxCell>
        <mxCell id="onUvSt0FVVwOG73gFmEF-31" value="&lt;font style=&quot;font-size: 16px&quot;&gt;枕叶区&lt;/font&gt;" style="rounded=1;whiteSpace=wrap;html=1;fontSize=12;" parent="1" vertex="1">
          <mxGeometry x="40" y="567.5" width="120" height="60" as="geometry" />
        </mxCell>
        <mxCell id="onUvSt0FVVwOG73gFmEF-40" style="edgeStyle=orthogonalEdgeStyle;rounded=0;orthogonalLoop=1;jettySize=auto;html=1;entryX=0.009;entryY=0.542;entryDx=0;entryDy=0;entryPerimeter=0;fontSize=12;exitX=0.5;exitY=1;exitDx=0;exitDy=0;shape=link;" parent="1" source="onUvSt0FVVwOG73gFmEF-32" target="onUvSt0FVVwOG73gFmEF-34" edge="1">
          <mxGeometry relative="1" as="geometry" />
        </mxCell>
        <mxCell id="onUvSt0FVVwOG73gFmEF-58" style="rounded=0;orthogonalLoop=1;jettySize=auto;html=1;exitX=1;exitY=0.5;exitDx=0;exitDy=0;entryX=-0.047;entryY=0.906;entryDx=0;entryDy=0;entryPerimeter=0;fontSize=12;shape=link;" parent="1" source="onUvSt0FVVwOG73gFmEF-32" target="onUvSt0FVVwOG73gFmEF-46" edge="1">
          <mxGeometry relative="1" as="geometry" />
        </mxCell>
        <mxCell id="onUvSt0FVVwOG73gFmEF-32" value="&lt;font style=&quot;font-size: 16px&quot;&gt;颞叶区&lt;/font&gt;" style="rounded=1;whiteSpace=wrap;html=1;fontSize=12;" parent="1" vertex="1">
          <mxGeometry x="40" y="660" width="120" height="60" as="geometry" />
        </mxCell>
        <mxCell id="onUvSt0FVVwOG73gFmEF-34" value="&lt;font style=&quot;font-size: 16px&quot;&gt;Database&lt;/font&gt;" style="html=1;whiteSpace=wrap;aspect=fixed;shape=isoCube;backgroundOutline=1;fontSize=12;" parent="1" vertex="1">
          <mxGeometry x="315" y="840" width="90" height="100" as="geometry" />
        </mxCell>
        <mxCell id="onUvSt0FVVwOG73gFmEF-37" style="edgeStyle=orthogonalEdgeStyle;rounded=0;orthogonalLoop=1;jettySize=auto;html=1;exitX=0.5;exitY=1;exitDx=0;exitDy=0;entryX=1.004;entryY=0.574;entryDx=0;entryDy=0;entryPerimeter=0;fontSize=12;shape=link;" parent="1" source="onUvSt0FVVwOG73gFmEF-36" target="onUvSt0FVVwOG73gFmEF-34" edge="1">
          <mxGeometry relative="1" as="geometry" />
        </mxCell>
        <mxCell id="onUvSt0FVVwOG73gFmEF-36" value="海马体" style="ellipse;whiteSpace=wrap;html=1;aspect=fixed;fontSize=14;fillColor=#f0fff5;strokeColor=#3ce4bb;" parent="1" vertex="1">
          <mxGeometry x="495" y="770" width="50" height="50" as="geometry" />
        </mxCell>
        <mxCell id="yP4HdvnU_koDg8SmlE66-2" style="rounded=0;orthogonalLoop=1;jettySize=auto;html=1;entryX=0;entryY=0.5;entryDx=0;entryDy=0;fontSize=12;shape=link;" parent="1" source="onUvSt0FVVwOG73gFmEF-46" target="onUvSt0FVVwOG73gFmEF-16" edge="1">
          <mxGeometry relative="1" as="geometry" />
        </mxCell>
        <mxCell id="onUvSt0FVVwOG73gFmEF-46" value="&lt;font style=&quot;font-size: 14px&quot;&gt;隐&lt;br&gt;藏&lt;br&gt;空&lt;br&gt;间&lt;br&gt;编&lt;br&gt;码&lt;/font&gt;" style="rounded=0;whiteSpace=wrap;html=1;fontSize=12;" parent="1" vertex="1">
          <mxGeometry x="210" y="400" width="30" height="320" as="geometry" />
        </mxCell>
        <mxCell id="onUvSt0FVVwOG73gFmEF-54" style="edgeStyle=orthogonalEdgeStyle;rounded=0;orthogonalLoop=1;jettySize=auto;html=1;exitX=0.5;exitY=1;exitDx=0;exitDy=0;fontSize=12;" parent="1" source="onUvSt0FVVwOG73gFmEF-46" target="onUvSt0FVVwOG73gFmEF-46" edge="1">
          <mxGeometry relative="1" as="geometry" />
        </mxCell>
        <mxCell id="yP4HdvnU_koDg8SmlE66-4" style="rounded=0;orthogonalLoop=1;jettySize=auto;html=1;exitX=1;exitY=0.5;exitDx=0;exitDy=0;fontSize=12;shape=link;" parent="1" edge="1">
          <mxGeometry relative="1" as="geometry">
            <mxPoint x="39.99999999999999" y="200.56" as="sourcePoint" />
            <mxPoint x="120" y="200" as="targetPoint" />
          </mxGeometry>
        </mxCell>
        <mxCell id="yP4HdvnU_koDg8SmlE66-5" value="双向连接" style="text;html=1;align=center;verticalAlign=middle;resizable=0;points=[];autosize=1;strokeColor=none;fillColor=none;fontSize=12;" parent="1" vertex="1">
          <mxGeometry x="50" y="180" width="60" height="20" as="geometry" />
        </mxCell>
        <mxCell id="yP4HdvnU_koDg8SmlE66-7" style="edgeStyle=orthogonalEdgeStyle;rounded=0;orthogonalLoop=1;jettySize=auto;html=1;exitX=0.25;exitY=1;exitDx=0;exitDy=0;fontSize=12;" parent="1" source="yP4HdvnU_koDg8SmlE66-6" edge="1">
          <mxGeometry relative="1" as="geometry">
            <mxPoint x="650" y="980" as="targetPoint" />
          </mxGeometry>
        </mxCell>
        <mxCell id="yP4HdvnU_koDg8SmlE66-8" style="edgeStyle=orthogonalEdgeStyle;rounded=0;orthogonalLoop=1;jettySize=auto;html=1;exitX=0.5;exitY=1;exitDx=0;exitDy=0;fontSize=12;" parent="1" source="yP4HdvnU_koDg8SmlE66-6" edge="1">
          <mxGeometry relative="1" as="geometry">
            <mxPoint x="680" y="980" as="targetPoint" />
          </mxGeometry>
        </mxCell>
        <mxCell id="yP4HdvnU_koDg8SmlE66-9" style="edgeStyle=orthogonalEdgeStyle;rounded=0;orthogonalLoop=1;jettySize=auto;html=1;exitX=0.75;exitY=1;exitDx=0;exitDy=0;fontSize=12;" parent="1" source="yP4HdvnU_koDg8SmlE66-6" edge="1">
          <mxGeometry relative="1" as="geometry">
            <mxPoint x="710" y="980" as="targetPoint" />
          </mxGeometry>
        </mxCell>
        <mxCell id="yP4HdvnU_koDg8SmlE66-6" value="&lt;font style=&quot;font-size: 16px&quot;&gt;输出层&lt;/font&gt;" style="rounded=0;whiteSpace=wrap;html=1;fontSize=12;" parent="1" vertex="1">
          <mxGeometry x="620" y="840" width="120" height="40" as="geometry" />
        </mxCell>
        <mxCell id="yP4HdvnU_koDg8SmlE66-10" value="文&lt;br&gt;本" style="text;html=1;align=center;verticalAlign=middle;resizable=0;points=[];autosize=1;strokeColor=none;fillColor=none;fontSize=12;" parent="1" vertex="1">
          <mxGeometry x="625" y="905" width="30" height="30" as="geometry" />
        </mxCell>
        <mxCell id="yP4HdvnU_koDg8SmlE66-11" value="图&lt;br&gt;像" style="text;html=1;align=center;verticalAlign=middle;resizable=0;points=[];autosize=1;strokeColor=none;fillColor=none;fontSize=12;" parent="1" vertex="1">
          <mxGeometry x="655" y="905" width="30" height="30" as="geometry" />
        </mxCell>
        <mxCell id="yP4HdvnU_koDg8SmlE66-12" value="信&lt;br&gt;号" style="text;html=1;align=center;verticalAlign=middle;resizable=0;points=[];autosize=1;strokeColor=none;fillColor=none;fontSize=12;" parent="1" vertex="1">
          <mxGeometry x="685" y="905" width="30" height="30" as="geometry" />
        </mxCell>
      </root>
    </mxGraphModel>
  </diagram>
</mxfile>
